<?xml version="1.0" encoding="UTF-8"?>
<svg id="Layer_2" data-name="Layer 2" xmlns="http://www.w3.org/2000/svg" viewBox="0 0 64 64">
  <g id="Layer_2-2" data-name="Layer 2">
    <g>
      <circle cx="32" cy="32" r="32" style="fill: #fff;"/>
      <path d="M26.33,35.2c.1-.01,.19-.03,.29-.03,1.19-.02,2.34,.25,3.45,.65,2.1,.75,3.94,1.93,5.56,3.43,.9,.83,1.71,1.75,2.56,2.63,.03,.03,.06,.06,.11,.09-1.78-8.58-3.59-17.15-6.48-25.51-.11,.2-.2,.35-.28,.51-2.08,4.01-3.99,8.09-5.67,12.28-1.33,3.33-2.5,6.72-3.33,10.21-.37,1.55-.67,3.11-.81,4.7-.17,1.89,.55,3.45,1.95,4.7,1.3,1.15,2.85,1.82,4.51,2.25,1.87,.49,3.77,.63,5.69,.48,3.65-.28,7-1.41,9.98-3.57,2.67-1.94,4.57-4.47,5.79-7.53,.66-1.65,1.04-3.36,1.29-5.11,.24-1.69,.35-3.39,.25-5.1-.25-4.39-1.62-8.36-4.49-11.74-1.85-2.19-4.12-3.82-6.74-4.98-1.91-.85-3.91-1.38-5.98-1.63-1.65-.2-3.3-.2-4.95-.02-1.65,.18-3.26,.52-4.83,1.04-2.08,.69-4,1.69-5.71,3.06-2.08,1.67-3.7,3.71-4.92,6.07-1.21,2.36-1.96,4.87-2.33,7.49-.28,1.99-.33,3.99-.12,5.99,.22,2.06,.68,4.06,1.66,5.91,.11,.2,.24,.39,.34,.6,.03,.07-.01,.18-.02,.27-.08-.03-.19-.04-.23-.1-.61-.82-1.08-1.71-1.46-2.66-.56-1.39-.91-2.83-1.13-4.31-.23-1.47-.31-2.95-.25-4.43,.17-4.76,1.47-9.16,4.3-13.05,1.66-2.28,3.73-4.08,6.2-5.45,1.74-.96,3.59-1.65,5.52-2.13,2.54-.63,5.13-.88,7.74-.67,4.35,.36,8.33,1.77,11.83,4.42,3.59,2.71,5.97,6.28,7.31,10.55,.49,1.56,.79,3.16,.94,4.78,.16,1.7,.15,3.4,0,5.11-.15,1.69-.4,3.35-.85,4.98-.8,2.87-2.11,5.48-4.03,7.77-1.73,2.06-3.8,3.69-6.19,4.92-2.38,1.23-4.91,1.98-7.57,2.31-1.47,.18-2.94,.21-4.42,.09-2.2-.18-4.33-.68-6.32-1.66-1.37-.67-2.6-1.54-3.6-2.71-1.13-1.34-1.81-2.87-1.98-4.62-.11-1.19,.07-2.35,.26-3.51,.81-4.88,2.47-9.49,4.36-14.03,1.86-4.46,4.01-8.77,6.36-12.98,.34-.6,.69-1.19,1.03-1.79,.26-.45,.63-.7,1.17-.65,.5,.05,.8,.36,.99,.81,1.42,3.35,2.47,6.83,3.39,10.35,.69,2.61,1.35,5.22,1.95,7.84,.75,3.3,1.44,6.61,2.13,9.92,.38,1.8,.71,3.6,1.05,5.4,.1,.49-.03,.92-.45,1.22-.39,.28-.81,.29-1.24,.06-.25-.14-.4-.36-.52-.61-.6-1.31-1.26-2.6-2.02-3.83-1.23-1.99-2.67-3.82-4.46-5.33-1.56-1.32-3.29-2.35-5.3-2.84-.35-.09-.71-.12-1.07-.18-.07-.01-.14-.03-.2-.04,0-.03,0-.06,0-.09Z" style="fill: #1d1d1d;"/>
    </g>
  </g>
</svg>