<?xml version="1.0" encoding="UTF-8"?>
<svg id="Layer_2" data-name="Layer 2" xmlns="http://www.w3.org/2000/svg" viewBox="0 0 64 64">
  <g id="Layer_2-2" data-name="Layer 2">
    <g>
      <path d="M32,64h0C14.3,64,0,49.7,0,32H0C0,14.3,14.3,0,32,0h0c17.7,0,32,14.3,32,32h0c0,17.7-14.3,32-32,32Z" style="fill: #fff;"/>
      <g>
        <path d="M32,50.2h-10.6c-1,0-1.5-.9-1-1.7,.1-.3,.3-.5,.5-.8,.3-.6,.7-1.1,1-1.7,.3-.5,.6-.7,1.2-.7h11.5c.7,0,1.2-.4,1.2-1,0-.2,0-.5-.1-.7-.3-.5-.6-1.1-.9-1.6-.2-.3-.5-.5-.9-.5h-8.3c-.5,0-.8-.2-1.1-.6-1.5-2.5-2.9-5.1-4.4-7.6-.2-.4-.2-.8,0-1.3,1.7-2.9,3.3-5.7,5-8.6,.4-.7,.8-1.4,1.2-2.1,.5-.9,1.5-.9,2,0,1.8,3.1,3.5,6.1,5.3,9.2,.5,.8-.1,1.7-1,1.7h-2.6c-.5,0-.8-.2-1.1-.6-.1-.3-.3-.5-.5-.8-.5-.8-1.5-.8-2,0-.3,.5-.6,1.1-1,1.7-.2,.3-.2,.7,0,1.1,.5,.9,1.1,1.8,1.6,2.8,.2,.4,.6,.6,1.1,.6h8.4c.5,0,.8,.2,1.1,.6,2.1,3.7,4.2,7.3,6.3,11,.5,.8,0,1.7-1,1.7-3.8-.1-7.4-.1-10.9-.1Z" style="fill: #1d1d1d;"/>
        <path d="M51.2,50.2h-1.5c-.5,0-.8-.2-1-.6-2.3-4-4.6-8.1-7-12.1-2.7-4.7-5.4-9.4-8.1-14.2-1.3-2.3-2.7-4.7-4-7-.2-.4-.2-.8,0-1.3,.5-.9,1-1.7,1.5-2.6,.3-.5,.9-.7,1.4-.4,.2,.1,.4,.3,.5,.5,.9,1.5,1.8,3.1,2.7,4.6,1.4,2.5,2.8,4.9,4.3,7.4,2.8,4.8,5.5,9.6,8.3,14.4,1.8,3.2,3.6,6.3,5.5,9.5,.2,.4,.3,.8,0,1.2-.2,.4-.6,.5-1,.5-.6,.1-1.1,.1-1.6,.1Z" style="fill: #1d1d1d;"/>
        <path d="M12.8,50.2h-1.4c-1,0-1.5-.9-1-1.8,.8-1.3,1.5-2.6,2.3-4,1.2-2.1,2.4-4.1,3.6-6.2,.5-.9,1.5-.9,2,0,.5,.8,1,1.7,1.4,2.5,.3,.5,.3,.9,0,1.3-1.5,2.5-2.9,5-4.4,7.5-.2,.4-.6,.6-1.1,.6-.4,.1-.9,.1-1.4,.1Z" style="fill: #1d1d1d;"/>
      </g>
    </g>
  </g>
</svg>